<svg xmlns="http://www.w3.org/2000/svg" viewBox="0 0 95 95" enable-background="new 0 0 95 95"><path fill="#26AE76" d="M67 40.9c-.5.1-1 .2-1.5.4s-.9.6-1.3 1c-.5.5-.7.9-.8 1.2v.2s0 .1.1.1c.2.2.4.3.7.3h1c.4-.1.7-.2 1.1-.3.4-.2.8-.3 1.2-.6l2-1.5c-.3-.3-.7-.5-1.1-.6-.4-.3-.9-.3-1.4-.2zM52.4 25.2c-.4-.1-.8 0-1.3.1-.4.1-.9.3-1.3.6l-1.2.9c-.5.5-.7.9-.8 1.2v.2l.1.1c.2.2.4.3.7.3.3.1.6.1 1 0 .4 0 .8-.1 1.2-.3.4-.1.8-.3 1.3-.5l1.8-1.4v-.3c-.1-.2-.2-.4-.4-.5-.3-.2-.7-.4-1.1-.4zM74.5 47.2c-.4-.1-.8 0-1.3.1-.4.1-.9.3-1.3.6l-1.2.9c-.4.5-.7.9-.7 1.2v.2l.1.1c.2.2.4.3.7.3.3.1.6.1 1 0 .4 0 .8-.1 1.2-.3.4-.1.8-.3 1.3-.5l1.8-1.4v-.3c-.1-.2-.2-.4-.4-.5-.5-.1-.8-.3-1.2-.4zM95 95V44.1L51 0H0l86.1 86.1L95 95zM61 26.1c.2-.1.4-.1.5-.1.2 0 .4 0 .5.1.2.1.3.2.4.3.1.1.2.3.3.4.1.1.1.3.1.4 0 .1.1.2.1.2.1.2.1.3.1.5s0 .4-.1.5c-.1.2-.2.3-.3.5-.1.1-.3.2-.5.3-.2.1-.4.1-.5.1-.2 0-.4 0-.5-.1-.2-.1-.3-.2-.4-.3-.1-.1-.2-.3-.3-.4 0-.1-.1-.3-.1-.4-.1-.1-.1-.2-.1-.3-.1-.2-.1-.3-.1-.5s0-.4.1-.5c.1-.2.2-.3.3-.5.2 0 .4-.1.5-.2zm-26.4-8.5l.2-.2-.5-.5 10.2-8 1.6 1.6-.1.2.5.5-10.2 8-1.7-1.6zm7.2 7.2c.1-.1.2-.1.2-.2l-.5-.5c.8-.6 1.5-1.2 2-1.6.6-.4 1-.8 1.4-1.1.4-.3.7-.5.9-.7.2-.2.4-.3.5-.4.1-.1.2-.1.2-.2l.1-.1c.3-.3.4-.5.4-.7l-.1-.1c-.2-.2-.4-.3-.7-.4-.3-.1-.6-.1-1-.1s-.7.1-1.1.2c-.4.1-.8.3-1.2.5l-3.5 2.8-1.6-1.6.2-.2-.5-.5 7.3-5.7.8.8c.2.2.3.3.3.5v.2c.2.2.2.3.2.5s-.1.3-.2.5c.4 0 .8 0 1.1.1.6.2 1.2.5 1.6.9.2.2.4.5.5.8.1.1.1.3.1.4 0 .1.1.2.1.2.1.3.2.6.1.9 0 .3-.1.6-.3.9-.2.3-.4.6-.7.9-.1.1-.2.2-.3.2-.1.1-.2.2-.3.2l-4.6 3.6-1.4-1zm7.4 7.4c-.2-.2-.3-.4-.3-.5v-.1c-.2-.2-.3-.4-.2-.5 0-.2.1-.3.2-.4l.1-.1c-.4 0-.7 0-1.1-.1-.7-.1-1.2-.4-1.6-.8-.3-.3-.5-.6-.6-.9-.1-.1-.1-.3-.1-.4 0-.1-.1-.2-.1-.2-.1-.3-.2-.7-.1-1 0-.4.2-.7.4-1.1.2-.4.5-.8.9-1.2.4-.4.8-.7 1.2-1 .4-.3.9-.5 1.3-.7.5-.2.9-.3 1.4-.4.5-.1.9-.1 1.3 0 .4 0 .8.1 1.2.3.4.2.7.4 1 .7.3.3.5.6.6.9.1.2.1.3.1.5 0 .1.1.1.1.2s.1.2.1.3l3.7-2.9 1.5 1.5-.2.2.5.5L50 33l-.8-.8zm2.5 2.5l.2-.2-.5-.5 7.2-5.7 1.5 1.5-.1.2.5.5-7.2 5.7-1.6-1.5zm8 6.9c-.4 0-.7-.1-1-.2-.3-.1-.6-.2-.8-.4-.3-.2-.5-.4-.8-.7-.4-.4-.6-.8-.8-1.2-.1-.2-.1-.3-.2-.5 0-.1 0-.1-.1-.2-.2-.4-.2-.9-.2-1.3s.2-.9.4-1.3.5-.9.9-1.3c.5-.5 1.1-.9 1.8-1.3.6-.3 1.3-.5 2-.6.7-.1 1.3 0 1.9.2.6.2 1.2.5 1.7 1 .4.4.7.9.9 1.3 0 .1.1.2.1.3.1.1.1.2.1.3.1.5.2.9.1 1.5l-1.1.1h-.2c-.1 0-.1-.1-.2-.1-.1-.1-.1-.2-.1-.3 0-.1 0-.2-.1-.3-.1-.1-.1-.2-.1-.3v-.2c-.1-.1-.2-.3-.3-.4-.2-.2-.5-.4-.9-.5-.3-.1-.7-.1-1.1 0-.4.1-.8.2-1.3.5-.4.2-.9.6-1.3 1-.5.5-.7.9-.8 1.4v.3c.1.1.1.2.2.3.2.2.5.4.7.5.2.1.4.1.6.2.2 0 .4 0 .5.1.2 0 .3.1.4.2.1.1.1.1.1.2v.4s.1 0 .1.1c.1.1.1.1.1.2v.2l-.1.9c-.4-.1-.8-.1-1.1-.1zm4.8 5.9c-.2-.2-.3-.4-.3-.5v-.1c-.2-.2-.3-.4-.2-.5 0-.2.1-.3.2-.4-.3 0-.6 0-.9-.1-.6-.1-1.1-.4-1.6-.8-.2-.2-.4-.5-.5-.8 0-.1-.1-.3-.1-.4 0-.1-.1-.2-.1-.2-.1-.3-.2-.6-.1-1 0-.3.1-.7.3-1.1.2-.4.5-.8.9-1.1.4-.4.8-.7 1.3-1 .5-.3.9-.5 1.4-.6.5-.1 1-.2 1.5-.2s1 0 1.5.2c.5.1 1 .3 1.5.6s.9.6 1.3 1c.3.3.6.6.8.9.3.3.5.7.6 1.1l-.1.1.3.6-7.1 5.5-.6-1.2zm6.8 6.8c-.2-.2-.3-.4-.3-.5v-.1c-.2-.2-.3-.4-.2-.5 0-.2.1-.3.2-.4l.1-.1c-.4 0-.7 0-1.1-.1-.7-.1-1.2-.4-1.6-.8-.3-.3-.5-.6-.6-.9-.1-.1-.1-.3-.1-.4 0-.1-.1-.2-.1-.2-.1-.3-.2-.7-.1-1 0-.4.2-.7.4-1.1.2-.4.5-.8.9-1.2.4-.4.8-.7 1.2-1 .4-.3.9-.5 1.3-.7.5-.2.9-.3 1.4-.4.5-.1.9-.1 1.3 0 .4 0 .8.1 1.2.3.4.2.7.4 1 .7.3.3.5.6.6.9.1.2.1.3.1.5 0 .1.1.1.1.2s.1.2.1.3l3.7-2.9 1.5 1.5-.2.2.5.5-10.5 8.2-.8-1zm13 2.9c-.2.5-.5.9-1 1.3-.6.6-1.2 1-1.8 1.3-.7.3-1.3.5-2 .5s-1.3 0-1.9-.2c-.6-.2-1.2-.5-1.6-1-.4-.4-.6-.7-.8-1.2-.1-.2-.2-.4-.2-.6v-.1c-.2-.4-.3-.9-.3-1.3 0-.5.1-.9.3-1.4.2-.5.5-.9 1-1.3.6-.6 1.2-1 1.8-1.3.7-.3 1.3-.5 2-.5s1.3 0 1.9.2c.6.2 1.2.5 1.6 1 .4.4.6.7.8 1.2.1.2.2.4.2.6v.1c.2.4.3.9.3 1.3 0 .5-.1 1-.3 1.4zM81.3 53.9c-.4-.1-.7 0-1.1.1-.4.1-.8.3-1.2.5l-1.2.9c-.5.5-.8 1-.9 1.4v.2c.1.1.1.2.2.3.3.3.6.4.9.5.4.1.7 0 1.1-.1.4-.1.8-.3 1.2-.5l1.2-.9c.5-.5.8-1 .9-1.4v-.2c-.1-.1-.1-.2-.2-.3-.3-.2-.6-.4-.9-.5z"/><path fill="#16895B" d="M0 8.9h8.9L0 0z"/><path fill="#158955" d="M46 10.7l-10 7.8-1.2-1.1-.2.2 1.6 1.6 10.2-8zM48.3 22.5c.1-.1.2-.2.3-.2.3-.3.6-.6.7-.9.2-.3.3-.6.3-.9 0-.3 0-.6-.1-.9 0-.1-.1-.2-.1-.2v.5c0 .3-.1.6-.3.9-.2.3-.4.6-.7.9-.1.1-.2.2-.3.2-.1.1-.2.2-.3.2l-4.6 3.6-1.1-1.1c-.1.1-.2.1-.2.2l1.6 1.6 4.6-3.6c0-.2.1-.2.2-.3zM46.8 18.7c-.2-.2-.4-.3-.7-.4-.3-.1-.6-.1-1-.1s-.7.1-1.1.2c-.4.1-.8.3-1.2.5l-3.5 2.8-1.1-1.1-.2.2 1.6 1.6 3.5-2.8c.4-.2.8-.4 1.2-.5.4-.1.8-.2 1.1-.2.4 0 .7 0 1 .1.3.1.5.2.7.4l.1.1v-.1c-.1-.2-.2-.4-.4-.7zM44.9 17.2c.4-.1.7-.1 1.1-.1.2-.2.3-.4.2-.5 0-.2-.1-.3-.2-.5 0 .1-.1.2-.2.3l-.9.8zM47.9 28c.1-.4.3-.8.8-1.2.3-.3.7-.7 1.2-.9.4-.3.9-.4 1.3-.6.4-.1.9-.1 1.3-.1.4.1.7.2 1 .5.1.1.3.3.4.5 0-.2-.1-.4-.2-.5-.1-.2-.3-.5-.4-.6-.3-.3-.6-.4-1-.5-.4-.1-.8 0-1.3.1-.4.1-.9.3-1.3.6l-1.2.9c-.5.5-.7.9-.8 1.2-.1.3 0 .6.2.8V28zM47.8 29.7c-.7-.1-1.2-.4-1.6-.8-.2-.2-.4-.4-.5-.6 0 .1.1.3.1.4.1.3.3.6.6.9.4.4 1 .7 1.6.8.3.1.7.1 1.1.1l.9-.8c-.8.1-1.6.1-2.2 0zM55.1 25.5c0-.1-.1-.2-.1-.3 0-.1-.1-.1-.1-.2 0 .2.1.4.1.6l.1-.1zM60.1 24.3l-10.3 8-.8-.8v.1c0 .2.1.3.3.5l.7.9 10.5-8.2-.4-.5zM60 30l-7 5.5-1.1-1-.2.2 1.5 1.5 7.2-5.7zM62.8 27.9c-.1.2-.2.3-.3.5-.1.1-.3.2-.5.3-.2.1-.4.1-.5.1-.2 0-.4 0-.5-.1-.2-.1-.3-.2-.4-.3-.1-.1-.1-.1-.1-.2 0 .1 0 .3.1.4.1.2.2.3.3.4.1.1.3.2.4.3.2.1.3.1.5.1s.4 0 .5-.1c.2-.1.3-.2.5-.3.1-.1.2-.3.3-.5.1-.2.1-.4.1-.5 0-.2 0-.4-.1-.5 0-.1-.1-.2-.1-.2v.1c-.1.1-.1.3-.2.5zM63.6 35.7c-.1-.2-.2-.3-.4-.5s-.5-.4-.9-.5c-.3-.1-.7-.1-1.1 0-.4.1-.8.2-1.3.5-.4.2-.9.6-1.3 1-.5.5-.7.9-.8 1.4 0 .3 0 .7.2.9v-.3c0-.5.3-.9.8-1.4.4-.4.8-.7 1.3-1 .4-.2.9-.4 1.3-.5.4-.1.8-.1 1.1 0 .3.1.6.3.9.5.2.2.3.3.3.4v-.1c0-.1 0-.3-.1-.4zM60.9 40.5c0-.1-.1-.1-.1-.2l-.1-.1-.1.7h-1.2c-.4 0-.7-.1-1-.2-.3-.1-.6-.2-.8-.4-.3-.2-.5-.4-.8-.7-.3-.3-.6-.7-.7-1 0 .2.1.3.2.5.2.4.4.8.8 1.2.3.3.5.5.8.7.3.2.5.3.8.4.3.1.6.2 1 .2h1.2l.1-.9c0-.1 0-.2-.1-.2zM65.5 36.7l-1.1.1h-.2c-.1 0-.1 0-.2-.1 0 .1 0 .2.1.3 0 .1.1.2.1.3.1.1.1.1.2.1h.2l1.1-.1c.1-.5 0-1-.1-1.5 0-.1-.1-.2-.1-.3v1.2zM63.4 43.4c.1-.4.3-.8.8-1.2.4-.4.8-.7 1.3-1 .5-.2 1-.4 1.5-.4.5-.1 1 0 1.4.1.4.1.7.3 1.1.6l.2-.2-.3-.3c-.3-.3-.8-.6-1.2-.7-.5-.1-.9-.2-1.4-.1-.5.1-1 .2-1.5.4s-.9.6-1.3 1c-.5.5-.7.9-.8 1.2-.1.3 0 .6.2.8v-.2zM72.1 42.3l-7 5.4-.8-.8v.1c0 .2.1.3.3.5l.8.8 7.1-5.5c-.2-.2-.3-.4-.4-.5zM63.2 45.1c-.6-.1-1.1-.4-1.6-.8-.2-.2-.3-.4-.4-.6 0 .1.1.3.1.4.1.3.3.6.5.8.4.4 1 .7 1.6.8.3 0 .6.1.9.1l.9-.8c-.7.2-1.4.2-2 .1zM70 50c.1-.4.3-.8.8-1.2.3-.3.7-.7 1.2-.9.4-.3.9-.4 1.3-.6.4-.1.9-.1 1.3-.1.4.1.7.2 1 .5.1.1.3.3.4.5 0-.2-.1-.4-.2-.5-.1-.2-.3-.5-.4-.6-.3-.3-.6-.4-1-.5-.4-.1-.8 0-1.3.1-.4.1-.9.3-1.3.6l-1.2.9c-.5.5-.7.9-.8 1.2-.1.3 0 .6.2.8V50zM77.2 47.6c0-.1-.1-.2-.1-.3 0-.1-.1-.1-.1-.2 0 .2.1.4.1.6l.1-.1zM82.2 46.4l-10.3 8-.9-.8v.1c0 .2.1.3.3.5l.8.8 10.5-8.2-.4-.4zM69.9 51.8c-.7-.1-1.2-.4-1.6-.8-.2-.2-.4-.4-.5-.6 0 .1.1.3.1.4.1.3.3.6.6.9.4.4 1 .7 1.6.8.3.1.7.1 1.1.1l.9-.8c-.9.1-1.6.1-2.2 0zM76.8 56.9c.1-.4.4-.9.9-1.4.4-.4.8-.7 1.2-.9.4-.3.8-.4 1.2-.5.4-.1.8-.1 1.1-.1.4.1.7.2.9.5.1.1.2.2.2.3 0-.3-.2-.6-.5-.9-.3-.3-.6-.4-.9-.5-.4-.1-.7 0-1.1.1-.4.1-.8.3-1.2.5l-1.2.9c-.5.5-.8 1-.9 1.4-.1.3 0 .6.2.9.1-.2.1-.2.1-.3zM84.3 54.5c.1.2.1.5.1.7 0 .5-.1.9-.3 1.4-.2.5-.5.9-1 1.3-.6.6-1.2 1-1.8 1.3-.7.3-1.3.5-2 .5s-1.3 0-1.9-.2c-.6-.2-1.2-.5-1.6-1-.3-.3-.6-.7-.8-1.1 0 .2.1.4.2.6.2.4.5.8.8 1.2.5.5 1 .8 1.6 1 .6.2 1.3.3 1.9.2.7 0 1.3-.2 2-.5s1.3-.7 1.8-1.3c.4-.4.8-.9 1-1.3.2-.5.3-.9.3-1.4 0-.5-.1-.9-.3-1.4z"/><path fill="#fff" d="M46 10.7l.2-.2-1.6-1.6-10.3 8 .5.5 1.2 1.1zM47.8 22.1c.1-.1.2-.2.3-.2.1-.1.2-.2.3-.2.3-.3.6-.6.7-.9.2-.3.3-.6.3-.9v-.5c0-.1-.1-.3-.1-.4-.1-.3-.3-.5-.5-.8-.4-.4-1-.7-1.6-.9-.3-.1-.7-.1-1.1-.1-.3 0-.7 0-1.1.1l.9-.8c.1-.1.2-.2.2-.3V16c0-.2-.1-.3-.3-.5l-.8-.9-7.3 5.7.5.5 1.1 1.1 3.5-2.8c.4-.2.8-.4 1.2-.5.4-.1.8-.2 1.1-.2.4 0 .7 0 1 .1.3.1.5.2.7.4.2.2.3.4.3.7v.1c0 .2-.2.4-.4.7l-.1.1-.2.2c-.1.1-.3.2-.5.4s-.5.4-.9.7c-.4.3-.8.7-1.4 1.1-.6.4-1.2 1-2 1.6l.5.5 1.1 1.1 4.6-4zM49.8 32.4l10.3-8 .2-.2-1.5-1.5-3.7 2.9H55c0-.2 0-.4-.1-.6 0-.2-.1-.3-.1-.5-.1-.3-.3-.7-.6-.9-.3-.3-.6-.5-1-.7-.4-.2-.8-.3-1.2-.3h-1.3c-.5.1-.9.2-1.4.4-.5.2-.9.4-1.3.7-.4.3-.8.6-1.2 1-.4.4-.7.8-.9 1.2-.2.4-.3.8-.4 1.1 0 .4 0 .7.1 1 0 .1.1.2.1.2.1.2.3.4.5.6.4.4 1 .7 1.6.8.7.1 1.4.1 2.1-.1l-.9.8-.1.1c-.1.1-.2.3-.2.4 0 .2.1.3.2.5l.9 1.1zm-2.1-5.1c.1-.4.3-.8.8-1.2.3-.3.7-.7 1.2-.9.4-.3.9-.4 1.3-.6.4-.1.9-.1 1.3-.1.4.1.7.2 1 .5.2.2.3.4.4.6.1.2.1.3.2.5v.3l-1.8 1.4c-.4.2-.8.4-1.3.5l-1.2.3h-1c-.3-.1-.5-.2-.7-.3l-.1-.1c-.1-.3-.2-.6-.1-.9zM60.2 27.4c0 .2 0 .3.1.5 0 .1.1.2.1.3 0 .1.1.1.1.2.1.1.3.2.4.3.2.1.3.1.5.1s.4 0 .5-.1c.2-.1.3-.2.5-.3.1-.1.2-.3.3-.5.1-.2.1-.4.1-.5v-.1c0-.1 0-.3-.1-.4-.1-.2-.2-.3-.3-.4-.1-.1-.3-.2-.4-.3-.1-.2-.3-.2-.4-.2-.2 0-.4 0-.5.1-.2.1-.3.2-.5.3-.1.1-.2.3-.3.5-.1.1-.1.3-.1.5zM60 30l.2-.2-1.5-1.5-7.3 5.7.5.5 1.1 1zM57.6 40.3c.3.2.5.3.8.4.3.1.6.2 1 .2h1.2l.1-.7v-.4c0-.1-.1-.1-.1-.2-.1-.1-.2-.2-.4-.2s-.3 0-.5-.1c-.2 0-.4-.1-.6-.2-.2-.1-.5-.3-.7-.5-.1-.1-.2-.2-.2-.3-.2-.3-.3-.6-.2-.9 0-.5.3-.9.8-1.4.4-.4.8-.7 1.3-1 .4-.2.9-.4 1.3-.5.4-.1.8-.1 1.1 0 .3.1.6.3.9.5.2.2.3.4.4.5.1.2.1.3.1.4V36.2c0 .1.1.2.1.3.1 0 .1.1.2.1h.2l1.1-.1c.1-.4 0-.8 0-1.1 0-.1-.1-.2-.1-.3-.1-.5-.4-.9-.9-1.3-.5-.5-1.1-.8-1.7-1-.6-.2-1.3-.3-1.9-.2-.7.1-1.3.2-2 .6-.6.3-1.2.7-1.8 1.3-.4.4-.7.8-.9 1.3-.2.4-.4.9-.4 1.3s0 .9.2 1.3c0 .1 0 .1.1.2.2.4.4.7.7 1 .3.2.6.5.8.7zM65.1 47.7l7-5.4.1-.1c-.2-.4-.4-.8-.6-1.1-.3-.3-.5-.6-.8-.9-.4-.4-.8-.7-1.3-1-.5-.3-1-.4-1.5-.6-.5-.1-1-.2-1.5-.2s-1 .1-1.5.2-1 .3-1.4.6c-.5.3-.9.6-1.3 1s-.7.8-.9 1.1c-.2.4-.3.7-.3 1.1 0 .3 0 .7.1 1 0 .1.1.2.1.2.1.2.3.4.4.6.4.4 1 .7 1.6.8.6.1 1.3.1 2-.1l-.9.8c-.1.1-.2.3-.2.4 0 .2.1.3.2.5l.7 1.1zm-1.9-4.9c.1-.4.3-.8.8-1.2.4-.4.8-.7 1.3-1 .5-.2 1-.4 1.5-.4.5-.1 1 0 1.4.1.5.1.9.4 1.2.7l.3.3-.2.2-2 1.5-1.2.6c-.4.2-.8.3-1.1.3-.4.1-.7.1-1 0-.3 0-.5-.2-.7-.3 0 0 0-.1-.1-.1-.2-.1-.2-.4-.2-.7zM71.9 54.4l10.3-8 .2-.2-1.5-1.5-3.7 2.9-.1.1c0-.2 0-.4-.1-.6 0-.2-.1-.3-.1-.5-.1-.3-.3-.7-.6-.9-.3-.3-.6-.5-1-.7-.4-.2-.8-.3-1.2-.3h-1.3c-.5.1-.9.2-1.4.4-.5.2-.9.4-1.3.7-.4.3-.8.6-1.2 1-.4.4-.7.8-.9 1.2-.2.4-.3.8-.4 1.1 0 .4 0 .7.1 1 0 .1.1.2.1.2.1.2.3.4.5.6.4.4 1 .7 1.6.8.7.1 1.4.1 2.1-.1l-.9.8-.1.2c-.1.1-.2.3-.2.4 0 .2.1.3.2.5l.9.9zm-2.1-5c.1-.4.3-.8.8-1.2.3-.3.7-.7 1.2-.9.4-.3.9-.4 1.3-.6.4-.1.9-.1 1.3-.1.4.1.7.2 1 .5.2.2.3.4.4.6.1.2.1.3.2.5v.3l-1.8 1.4c-.4.2-.8.4-1.3.5l-1.2.3h-1c-.3-.1-.5-.2-.7-.3l-.1-.1c-.1-.3-.2-.6-.1-.9zM77.3 59.5c.6.2 1.3.3 1.9.2.7 0 1.3-.2 2-.5s1.3-.7 1.8-1.3c.4-.4.8-.9 1-1.3.2-.5.3-.9.3-1.4 0-.2 0-.5-.1-.7 0-.2-.1-.4-.2-.6-.2-.4-.5-.8-.8-1.2-.5-.5-1-.8-1.6-1-.6-.2-1.3-.3-1.9-.2-.7 0-1.3.2-2 .5s-1.3.7-1.8 1.3c-.4.4-.8.9-1 1.3-.2.5-.3.9-.3 1.4 0 .5.1.9.3 1.3v.1c.2.4.4.8.8 1.1.5.4 1 .8 1.6 1zm-.7-3.3c.1-.4.4-.9.9-1.4.4-.4.8-.7 1.2-.9.4-.3.8-.4 1.2-.5.4-.1.8-.1 1.1-.1.4.1.7.2.9.5.3.3.4.6.5.9v.2c-.1.4-.4.9-.9 1.4-.4.4-.8.7-1.2.9-.4.3-.8.4-1.2.5-.4.1-.8.1-1.1.1-.4-.1-.7-.2-.9-.5-.1-.1-.2-.2-.2-.3-.3-.2-.3-.5-.3-.8z"/><path fill="#16895B" d="M95 95l-8.9-8.9V95z"/></svg>